# xmcd
#
# Track frame offsets: 
#        150
#        13752
#        26422
#        36529
#        49479
#        60751
#        74991
#        88658
#        102928
#        116253
#
# Disc length: 1711 seconds
#
# Revision: 0
# Processed by: cddbd v1.5PL3 Copyright (c) Steve Scherf et al.
# Submitted via: ExactAudioCopy v0.95a4
#
DISCID=8706ad0a
DTITLE=Various Artist - Nothin' But The Blues [CD1]
DYEAR=1900
DGENRE=Blues
TTITLE0=T. Bone Boogie
TTITLE1=Please Don't Go
TTITLE2=Mean Red Spider
TTITLE3=Good Morning Blues
TTITLE4=Let Me Play With Your Poodle
TTITLE5=Gloomy Sunday
TTITLE6=I Know You're Gonna Miss Me
TTITLE7=Easy Rider
TTITLE8=She's Gone
TTITLE9=I Won't Be In Hard Luck No More
EXTD=
EXTT0=
EXTT1=
EXTT2=
EXTT3=
EXTT4=
EXTT5=
EXTT6=
EXTT7=
EXTT8=
EXTT9=
PLAYORDER=
